<svg xmlns="http://www.w3.org/2000/svg" width="29.72" height="29.75" viewBox="0 0 29.72 29.75">
  <path id="Icon_Instagram" data-name="Icon Instagram" d="M14.875,0Q17.9,0,18.856.015c.637.01,1.356.032,2.149.072a12.5,12.5,0,0,1,2.048.248,11.4,11.4,0,0,1,1.554.449,7.624,7.624,0,0,1,1.393.7A7.325,7.325,0,0,1,27.251,2.5a7.115,7.115,0,0,1,1.016,1.262,8.692,8.692,0,0,1,.7,1.381A11.4,11.4,0,0,1,29.415,6.7a10.865,10.865,0,0,1,.218,2.048c.04.793.064,1.512.074,2.149s.012,1.966.012,3.982,0,3.339-.012,3.979S29.673,20.21,29.633,21a10.893,10.893,0,0,1-.218,2.05,11.4,11.4,0,0,1-.449,1.554,7.7,7.7,0,0,1-.7,1.393,7.325,7.325,0,0,1-1.016,1.249,8.33,8.33,0,0,1-1.277,1.016,8.133,8.133,0,0,1-1.366.7,11.389,11.389,0,0,1-1.554.451,12.5,12.5,0,0,1-2.048.248c-.793.037-1.512.062-2.149.072s-1.966.015-3.982.015-3.339,0-3.979-.015S9.54,29.7,8.746,29.663a12.536,12.536,0,0,1-2.05-.248,11.389,11.389,0,0,1-1.554-.451,7.7,7.7,0,0,1-1.393-.7A7.326,7.326,0,0,1,2.5,27.251,7.325,7.325,0,0,1,1.483,26a7.7,7.7,0,0,1-.7-1.393A8.3,8.3,0,0,1,.32,23.054,13.91,13.91,0,0,1,.087,21q-.056-1.19-.072-2.149T0,14.875q0-3.023.015-3.982c.01-.637.035-1.356.072-2.149A13.873,13.873,0,0,1,.32,6.7,8.3,8.3,0,0,1,.786,5.142a7.617,7.617,0,0,1,.7-1.393A7.325,7.325,0,0,1,2.5,2.5,7.325,7.325,0,0,1,3.748,1.483a7.7,7.7,0,0,1,1.393-.7A8.49,8.49,0,0,1,6.7.32,13.91,13.91,0,0,1,8.746.087C9.54.047,10.256.025,10.9.015S12.862,0,14.875,0m0,2.673q-2.994,0-3.907.015T8.86,2.759a9.525,9.525,0,0,0-1.713.218c-.426.107-.776.208-1.046.3a4.637,4.637,0,0,0-.915.466,6.274,6.274,0,0,0-.8.637,6.274,6.274,0,0,0-.64.8,4.775,4.775,0,0,0-.466.915c-.1.27-.2.62-.3,1.046A8.292,8.292,0,0,0,2.789,8.86q-.056,1.164-.072,2.092T2.7,14.875q0,2.964.015,3.892t.072,2.122A8.292,8.292,0,0,0,2.977,22.6c.107.426.208.776.3,1.046a5.677,5.677,0,0,0,.466.9,4.1,4.1,0,0,0,.667.786A4.1,4.1,0,0,0,5.2,26a5.677,5.677,0,0,0,.9.466c.27.1.62.2,1.046.3a8.292,8.292,0,0,0,1.713.188q1.194.056,2.122.072t3.892.015q2.994,0,3.907-.015c.61-.01,1.314-.035,2.107-.072a8.292,8.292,0,0,0,1.713-.188c.426-.107.776-.208,1.046-.3A4.774,4.774,0,0,0,24.563,26a5.327,5.327,0,0,0,.8-.667A4.737,4.737,0,0,0,26,24.549a5.083,5.083,0,0,0,.466-.93,9.012,9.012,0,0,0,.3-1.016,9.663,9.663,0,0,0,.218-1.743c.02-.776.037-1.473.057-2.092s.03-1.916.03-3.892q0-2.994-.03-3.922c-.02-.62-.037-1.316-.057-2.092a9.663,9.663,0,0,0-.218-1.743,9.012,9.012,0,0,0-.3-1.016A5.083,5.083,0,0,0,26,5.171a4.737,4.737,0,0,0-.637-.786,6.467,6.467,0,0,0-.8-.637,4.637,4.637,0,0,0-.915-.466c-.27-.1-.62-.2-1.046-.3a9.525,9.525,0,0,0-1.713-.218c-.793-.037-1.5-.062-2.107-.072s-1.911-.015-3.907-.015m2.963,5.171a7.463,7.463,0,0,1,4.068,4.068,7.5,7.5,0,0,1,0,5.925,7.463,7.463,0,0,1-4.068,4.068,7.5,7.5,0,0,1-5.925,0,7.463,7.463,0,0,1-4.068-4.068,7.5,7.5,0,0,1,0-5.925,7.463,7.463,0,0,1,4.068-4.068,7.5,7.5,0,0,1,5.925,0M18.39,18.39a4.785,4.785,0,0,0,1.453-3.515,4.96,4.96,0,0,0-4.968-4.968,4.96,4.96,0,0,0-4.968,4.968,4.96,4.96,0,0,0,4.968,4.968A4.8,4.8,0,0,0,18.39,18.39M24.085,5.665a1.736,1.736,0,0,0-1.279-.523,1.7,1.7,0,0,0-1.249.523,1.743,1.743,0,0,0-.521,1.279,1.778,1.778,0,0,0,1.77,1.77,1.743,1.743,0,0,0,1.279-.521,1.7,1.7,0,0,0,.523-1.249,1.736,1.736,0,0,0-.523-1.279" fill="#fff"/>
</svg>
